<svg width="200" height="50" viewBox="0 0 133 29" fill="none" xmlns="http://www.w3.org/2000/svg">
    <path d="M4.15513 10.3574H5.28403V11.3535H4.15513V10.3574ZM2.96071 11.9512H6.41204L6.61657 13.3005L4.71958 12.3744L2.82259 13.3005L2.96071 11.9512ZM4.71958 13.0552V16.1878C4.53995 16.1912 4.35989 16.1957 4.17963 16.2012H2.63701L1.93739 14.4641L4.71958 13.0552ZM6.11976 13.7773C6.41314 13.7773 6.65101 14.0152 6.65101 14.3086C6.65101 14.602 6.41314 14.8398 6.11976 14.8398C5.82634 14.8398 5.58851 14.602 5.58851 14.3086C5.58851 14.0152 5.82634 13.7773 6.11976 13.7773Z" fill="#CBCBCB"/>
    <path d="M55.8424 1.53961C55.7098 1.44614 55.5857 1.3411 55.4717 1.22572L55.3227 1.06932L55.115 1.12153C54.759 1.21208 54.4133 1.23764 54.062 1.16039C53.8776 1.11922 53.6994 1.05426 53.5318 0.967123C53.3513 0.879407 53.1802 0.76237 53 0.625732C53.0406 0.853599 53.1563 1.05849 53.2988 1.24633C53.4482 1.42773 53.6353 1.59196 53.8572 1.70289C54.2383 1.90406 54.6904 1.93629 55.1018 1.85919C55.2291 1.96574 55.357 2.04719 55.5017 2.12336C55.7008 2.22755 55.919 2.2981 56.1434 2.33019C56.5937 2.3927 57.0619 2.25853 57.3596 1.9623C56.9418 1.98593 56.5892 1.93264 56.2806 1.78931C56.1265 1.72114 55.9796 1.63748 55.8424 1.53961ZM60.4382 2.52238C60.3265 2.48453 60.2215 2.42922 60.1271 2.35852C60.0432 2.2957 59.9675 2.2225 59.902 2.14067C59.84 2.06487 59.786 1.98291 59.7407 1.89609L59.6043 1.60566L59.3059 1.69775C59.0197 1.78572 58.7456 1.84415 58.4725 1.82856C58.2003 1.81524 57.9091 1.71781 57.6179 1.48582C57.6402 1.86852 57.9419 2.22366 58.3318 2.37951C58.6326 2.49962 58.9549 2.50806 59.2525 2.45475C59.3059 2.52001 59.3635 2.57827 59.4301 2.63697C59.5696 2.75425 59.7382 2.8449 59.9165 2.88703C60.2784 2.97397 60.6373 2.86089 60.8598 2.63066C60.7005 2.59597 60.5607 2.57064 60.4382 2.52238Z" fill="#2C98BB"/>
    <path d="M118.602 22.113C118.59 22.129 118.578 22.1457 118.568 22.163C118.545 22.204 118.525 22.2464 118.508 22.29C118.492 22.3299 118.474 22.369 118.454 22.407C118.37 22.5552 118.267 22.6911 118.146 22.811C117.86 23.099 117.36 23.415 116.5 23.415C116.367 23.415 116.24 23.4677 116.146 23.5614C116.053 23.6552 116 23.7824 116 23.915C116 24.0476 116.053 24.1748 116.146 24.2686C116.24 24.3623 116.367 24.415 116.5 24.415C117.641 24.415 118.391 23.981 118.854 23.519C118.897 23.475 118.938 23.432 118.976 23.389C119.001 23.42 119.026 23.453 119.053 23.485C119.43 23.937 120.06 24.415 121 24.415C121.94 24.415 122.57 23.937 122.947 23.485L123 23.419L123.053 23.485C123.43 23.937 124.06 24.415 125 24.415C125.94 24.415 126.57 23.937 126.947 23.485C126.974 23.453 126.999 23.42 127.024 23.388C127.062 23.431 127.103 23.475 127.146 23.518C127.609 23.981 128.359 24.415 129.5 24.415C129.633 24.415 129.76 24.3623 129.854 24.2686C129.947 24.1748 130 24.0476 130 23.915C130 23.7824 129.947 23.6552 129.854 23.5614C129.76 23.4677 129.633 23.415 129.5 23.415C128.641 23.415 128.141 23.099 127.854 22.811C127.692 22.6521 127.563 22.4632 127.474 22.255C127.44 22.1565 127.376 22.0711 127.291 22.0106C127.206 21.9502 127.105 21.9177 127 21.9177C126.896 21.9177 126.795 21.9502 126.71 22.0106C126.625 22.0711 126.561 22.1565 126.527 22.255C126.443 22.4687 126.325 22.6678 126.179 22.845C125.93 23.143 125.559 23.415 124.999 23.415C124.44 23.415 124.069 23.143 123.821 22.845C123.676 22.6691 123.559 22.4718 123.475 22.26C123.454 22.195 123.42 22.135 123.375 22.0837C123.33 22.0324 123.275 21.9909 123.213 21.9618C123.152 21.9327 123.085 21.9167 123.016 21.9147C122.948 21.9126 122.88 21.9247 122.817 21.95C122.748 21.9767 122.686 22.0183 122.636 22.072C122.585 22.1256 122.547 22.1898 122.524 22.26C122.44 22.4718 122.323 22.6691 122.178 22.845C121.93 23.143 121.56 23.415 121 23.415C120.44 23.415 120.07 23.143 119.822 22.845C119.715 22.7159 119.624 22.575 119.549 22.425C119.531 22.3881 119.514 22.3504 119.499 22.312C119.479 22.262 119.459 22.21 119.432 22.164C119.371 22.0588 119.273 21.9795 119.158 21.941L119.153 21.939C119.054 21.907 118.948 21.9065 118.85 21.9377C118.751 21.9689 118.664 22.0302 118.602 22.113Z" fill="#13708E" fill-opacity="0.8"/>
    <path d="M10.2724 18.6805H13.0085C13.7556 18.7041 14.4899 18.7473 15.2048 18.812C13.2483 19.2955 11.573 19.1372 9.57581 18.706C9.80794 18.6959 10.0401 18.6874 10.2724 18.6805ZM5.86085 19.6555C5.59712 19.6547 5.34065 19.6632 5.09439 19.6834L5.14316 20.2791C6.94908 20.1312 9.55964 20.6938 11.4252 20.8503C13.2726 21.0052 15.0764 20.7944 17.025 20.4016L16.9069 19.8158C14.9878 20.2026 13.2453 20.4032 11.4752 20.2548C9.90954 20.1235 7.70694 19.6609 5.86085 19.6555ZM6.53221 20.827C6.1272 20.8244 5.68929 20.8475 5.25333 20.8892C4.38142 20.9728 3.54005 21.1269 3 21.3627L3.23916 21.9104C3.64763 21.7321 4.47578 21.5642 5.31037 21.4842C6.14503 21.4042 7.00894 21.4074 7.49667 21.5049C8.59091 21.7237 10.5317 22.0673 12.0993 22.0177L12.0804 21.4204C10.6177 21.4667 8.69125 21.1342 7.61381 20.9188C7.30933 20.858 6.93726 20.8297 6.53221 20.827Z" fill="#CBCBCB"/>
    <path d="M91.9041 6.14911L89.1859 6.46096C88.4409 6.52272 87.7065 6.5635 86.9888 6.58066C88.8775 5.87735 90.5599 5.84368 92.5932 6.04445C92.3638 6.08092 92.1341 6.11581 91.9041 6.14911ZM96.1758 4.67772C96.4379 4.64842 96.6917 4.61071 96.9341 4.56258L96.8177 3.97633C95.0404 4.32911 92.3827 4.06769 90.5116 4.12488C88.6585 4.18156 86.8905 4.59658 84.9993 5.20884L85.1834 5.77743C87.046 5.1744 88.7542 4.7765 90.5297 4.72223C92.1001 4.67422 94.3411 4.88272 96.1758 4.67772ZM95.3753 3.5903C95.7779 3.54674 96.2104 3.47394 96.6387 3.38275C97.4954 3.20032 98.3138 2.95139 98.8234 2.65554L98.5234 2.13865C98.1379 2.36241 97.3343 2.62354 96.5142 2.7982C95.6941 2.97283 94.8355 3.06802 94.3398 3.02676C93.2278 2.93413 91.2604 2.81396 89.7088 3.0419L89.7956 3.63318C91.2435 3.42048 93.1953 3.53121 94.2903 3.6224C94.5997 3.64816 94.9726 3.63382 95.3753 3.5903Z" fill="#CBCBCB"/>
    <path d="M92.2724 18.6805H95.0085C95.7556 18.7041 96.4899 18.7473 97.2048 18.812C95.2483 19.2955 93.573 19.1372 91.5758 18.706C91.8079 18.6959 92.0401 18.6874 92.2724 18.6805ZM87.8608 19.6555C87.5971 19.6547 87.3407 19.6632 87.0944 19.6834L87.1432 20.2791C88.9491 20.1312 91.5596 20.6938 93.4252 20.8503C95.2726 21.0052 97.0764 20.7944 99.025 20.4016L98.9069 19.8158C96.9878 20.2026 95.2453 20.4032 93.4752 20.2548C91.9095 20.1235 89.7069 19.6609 87.8608 19.6555ZM88.5322 20.827C88.1272 20.8244 87.6893 20.8475 87.2533 20.8892C86.3814 20.9728 85.54 21.1269 85 21.3627L85.2392 21.9104C85.6476 21.7321 86.4758 21.5642 87.3104 21.4842C88.145 21.4042 89.0089 21.4074 89.4967 21.5049C90.5909 21.7237 92.5317 22.0673 94.0993 22.0177L94.0804 21.4204C92.6177 21.4667 90.6912 21.1342 89.6138 20.9188C89.3093 20.858 88.9373 20.8297 88.5322 20.827Z" fill="#CBCBCB"/>
    <path d="M7.27238 15.6805H10.0085C10.7556 15.7041 11.4899 15.7473 12.2048 15.812C10.2483 16.2955 8.57301 16.1372 6.57581 15.706C6.80794 15.6959 7.04014 15.6874 7.27238 15.6805ZM2.86085 16.6555C2.59712 16.6547 2.34065 16.6632 2.09439 16.6834L2.14316 17.2791C3.94908 17.1312 6.55964 17.6938 8.42516 17.8503C10.2726 18.0052 12.0764 17.7944 14.025 17.4016L13.9069 16.8158C11.9878 17.2026 10.2453 17.4032 8.47516 17.2548C6.90954 17.1235 4.70694 16.6609 2.86085 16.6555ZM3.53221 17.827C3.1272 17.8244 2.68929 17.8475 2.25333 17.8892C1.38142 17.9728 0.540049 18.1269 0 18.3627L0.239162 18.9104C0.647627 18.7321 1.47578 18.5642 2.31037 18.4842C3.14503 18.4042 4.00894 18.4074 4.49667 18.5049C5.59091 18.7237 7.53173 19.0673 9.09928 19.0177L9.08039 18.4204C7.61769 18.4667 5.69125 18.1342 4.61381 17.9188C4.30933 17.858 3.93726 17.8297 3.53221 17.827Z" fill="#307C94" fill-opacity="0.34"/>
    <path d="M95.2265 8.78762L92.5083 9.09947C91.7633 9.16124 91.0289 9.20202 90.3112 9.21917C92.1999 8.51586 93.8823 8.4822 95.9156 8.68297C95.6862 8.71943 95.4565 8.75432 95.2265 8.78762ZM99.4982 7.31623C99.7603 7.28693 100.014 7.24922 100.256 7.2011L100.14 6.61484C98.3628 6.96763 95.7051 6.70621 93.8339 6.76339C91.9809 6.82007 90.2129 7.23509 88.3217 7.84735L88.5058 8.41594C90.3684 7.81291 92.0766 7.41501 93.8521 7.36074C95.4225 7.31273 97.6635 7.52123 99.4982 7.31623ZM98.6977 6.22881C99.1003 6.18526 99.5328 6.11245 99.9611 6.02127C100.818 5.83883 101.636 5.58991 102.146 5.29405L101.846 4.77716C101.46 5.00092 100.657 5.26206 99.8366 5.43671C99.0165 5.61134 98.1579 5.70654 97.6622 5.66528C96.5502 5.57265 94.5828 5.45247 93.0312 5.68042L93.118 6.27169C94.5659 6.059 96.5177 6.16973 97.6127 6.26091C97.9221 6.28667 98.2949 6.27234 98.6977 6.22881Z" fill="#CBCBCB"/>
    <path d="M93.825 22C93.643 22 93.489 21.944 93.363 21.832C93.251 21.706 93.195 21.552 93.195 21.37V5.599H94.455V21.37C94.455 21.552 94.392 21.706 94.266 21.832C94.154 21.944 94.007 22 93.825 22ZM87.882 6.733C87.714 6.733 87.574 6.684 87.462 6.586C87.364 6.474 87.315 6.334 87.315 6.166C87.315 5.998 87.364 5.865 87.462 5.767C87.574 5.655 87.714 5.599 87.882 5.599H99.768C99.936 5.599 100.069 5.655 100.167 5.767C100.279 5.865 100.335 5.998 100.335 6.166C100.335 6.334 100.279 6.474 100.167 6.586C100.069 6.684 99.936 6.733 99.768 6.733H87.882Z" fill="#061556"/>
    <circle cx="6.2" cy="14.2" r="0.2" fill="#37517E"/>
    <path d="M104.968 7C104.676 7 104.437 7.4758 104.437 8.0625C104.437 8.34373 104.493 8.61334 104.593 8.81189C104.437 8.81887 104.294 8.85041 104.138 8.89258V9.41885C104.705 9.3385 105.27 9.34215 105.798 9.41885V8.89258C105.648 8.84775 105.486 8.82252 105.343 8.81189C105.443 8.61334 105.499 8.34373 105.499 8.0625C105.499 7.4758 105.26 7 104.968 7ZM99.3309 9.33385C99.1233 9.54137 99.2913 10.0451 99.7061 10.4601C99.9076 10.6593 100.137 10.8121 100.349 10.8818C100.243 10.998 100.163 11.1208 100.084 11.2603L100.459 11.6322C100.787 11.1872 101.186 10.7888 101.631 10.4601L101.259 10.0849C101.12 10.1579 100.993 10.2576 100.88 10.3505C100.811 10.138 100.658 9.90893 100.459 9.70971C100.193 9.50352 99.6436 9.03236 99.3309 9.33385ZM109.477 9.70904C109.278 9.90893 109.125 10.138 109.055 10.3505C108.939 10.2443 108.816 10.1646 108.677 10.0849L108.305 10.4601C108.75 10.7888 109.148 11.1872 109.477 11.6322L109.852 11.2603C109.779 11.1208 109.679 10.9947 109.586 10.8818C109.795 10.8087 110.025 10.6593 110.224 10.4601C110.639 10.0451 110.808 9.5407 110.599 9.33352C110.27 9.07221 109.669 9.52012 109.477 9.70904ZM104.752 9.95873C103.53 10.0119 102.421 10.4999 101.578 11.2736C101.468 11.3765 101.359 11.4828 101.272 11.579C100.499 12.4224 100.011 13.5314 99.9574 14.7566C99.9574 14.906 99.9508 15.0587 99.9607 15.1882C100.011 16.4101 100.499 17.5191 101.272 18.3624C101.375 18.4687 101.485 18.5783 101.578 18.6679C102.421 19.4382 103.53 19.9263 104.752 19.9794H104.759C104.895 19.9861 105.047 19.9794 105.184 19.9794C106.405 19.9263 107.514 19.4382 108.358 18.6646C108.467 18.5617 108.577 18.4554 108.663 18.3591C109.437 17.5158 109.925 16.4068 109.978 15.1849V15.1783C109.985 15.0388 109.978 14.8894 109.978 14.7533C109.925 13.5314 109.437 12.4224 108.663 11.579C108.56 11.4695 108.454 11.3599 108.358 11.2736C107.514 10.4999 106.405 10.0119 105.184 9.95873C105.034 9.95209 104.881 9.95873 104.752 9.95873ZM104.968 10.314C105.114 10.314 105.233 10.4335 105.233 10.5796C105.233 10.7257 105.114 10.8453 104.968 10.8453C104.822 10.8453 104.702 10.7257 104.702 10.5796C104.702 10.4335 104.822 10.314 104.968 10.314ZM105.197 11.257C106.05 11.3101 106.827 11.6488 107.431 12.1833C107.544 12.2863 107.654 12.3925 107.753 12.5054C108.288 13.1097 108.627 13.8867 108.68 14.7433C108.693 14.896 108.68 15.0488 108.68 15.1982C108.627 16.0515 108.288 16.8285 107.753 17.4328C107.651 17.5456 107.544 17.6552 107.431 17.7548C106.827 18.2894 106.05 18.6281 105.194 18.6812C105.041 18.6845 104.888 18.6945 104.739 18.6812C103.885 18.6281 103.108 18.2894 102.507 17.7548H102.504C102.391 17.6552 102.285 17.5456 102.185 17.4328C101.651 16.8318 101.309 16.0548 101.256 15.1982C101.252 15.0454 101.242 14.896 101.256 14.7466C101.272 13.89 101.697 13.0699 102.182 12.5054C102.285 12.3925 102.391 12.2829 102.504 12.1833C103.108 11.6488 103.885 11.3101 104.742 11.257C104.895 11.2437 105.047 11.257 105.197 11.257ZM102.049 11.6753C102.152 11.7783 102.152 11.9476 102.049 12.0505C101.946 12.1535 101.777 12.1535 101.674 12.0505C101.571 11.9476 101.571 11.7783 101.674 11.6753C101.79 11.579 101.946 11.579 102.049 11.6753ZM108.262 11.6753C108.364 11.7783 108.364 11.9476 108.262 12.0505C108.159 12.1535 107.989 12.1535 107.886 12.0505C107.783 11.9476 107.783 11.7783 107.886 11.6753C108.003 11.579 108.159 11.579 108.262 11.6753ZM104.437 11.8912V12.18C104.52 12.2863 104.583 12.3626 104.695 12.4058C104.672 12.8175 104.642 13.2392 104.603 13.6576C104.848 13.5945 105.107 13.5912 105.336 13.6609C105.296 13.2392 105.263 12.8175 105.24 12.4025C105.502 12.3328 105.499 12.1169 105.499 11.8912C105.134 11.8347 104.775 11.838 104.437 11.8912ZM103.165 12.4158C102.876 12.6216 102.62 12.8773 102.414 13.1662L102.62 13.372C102.753 13.3886 102.853 13.3986 102.962 13.3488C103.238 13.6576 103.513 13.9763 103.782 14.3017C103.905 14.0859 104.085 13.9066 104.304 13.7837C103.975 13.5148 103.656 13.2392 103.347 12.9636C103.407 12.8607 103.391 12.7412 103.371 12.6216L103.165 12.4158ZM106.771 12.4158L106.565 12.6216C106.542 12.7544 106.538 12.8507 106.585 12.9636C106.279 13.2392 105.957 13.5148 105.632 13.7837C105.848 13.9066 106.027 14.0859 106.15 14.305C106.419 13.9763 106.698 13.6576 106.97 13.3488C107.076 13.4052 107.192 13.3919 107.312 13.372L107.518 13.1662C107.312 12.8773 107.06 12.6216 106.771 12.4158ZM110.516 14.139C110.599 14.7068 110.592 15.2712 110.516 15.7992H111.044C111.094 15.6497 111.11 15.487 111.12 15.3443C111.32 15.4439 111.592 15.5003 111.874 15.5003C112.462 15.5003 112.937 15.2613 112.937 14.9691C112.937 14.6769 112.462 14.4378 111.874 14.4378C111.592 14.4378 111.32 14.4943 111.12 14.5939C111.117 14.4378 111.087 14.2951 111.044 14.139H110.516ZM98.8926 14.1423C98.8478 14.2917 98.8225 14.4478 98.8129 14.5939C98.613 14.4943 98.3431 14.4412 98.0625 14.4412C97.4758 14.4412 97 14.6802 97 14.9724C97 15.2646 97.4758 15.5037 98.0625 15.5037C98.3441 15.5037 98.614 15.4472 98.8129 15.3476C98.8179 15.5037 98.8501 15.6464 98.8926 15.8025H99.4172C99.3382 15.2347 99.3342 14.6703 99.4172 14.1423H98.8926ZM104.968 14.2054C104.539 14.2054 104.204 14.5441 104.204 14.9691C104.204 15.3941 104.539 15.7328 104.968 15.7328C105.393 15.7328 105.731 15.3941 105.731 14.9691C105.731 14.5441 105.393 14.2054 104.968 14.2054ZM107.757 14.4378C107.651 14.5208 107.574 14.5839 107.531 14.6968C107.119 14.6736 106.698 14.6437 106.279 14.6038C106.342 14.8529 106.342 15.1085 106.279 15.3376C106.698 15.2978 107.116 15.2646 107.531 15.2413C107.564 15.3576 107.657 15.4306 107.757 15.5003H108.046C108.102 15.1351 108.099 14.7765 108.046 14.4378H107.757ZM101.89 14.4412C101.833 14.8031 101.84 15.165 101.89 15.5037H102.179C102.282 15.4206 102.365 15.3609 102.401 15.2447C102.816 15.2646 103.235 15.2978 103.656 15.3376C103.59 15.0886 103.59 14.8329 103.653 14.6038C103.235 14.6437 102.813 14.6736 102.401 14.6968C102.371 14.5806 102.275 14.5076 102.179 14.4412H101.89ZM109.357 14.7035C109.503 14.7035 109.623 14.823 109.623 14.9691C109.623 15.1152 109.503 15.2347 109.357 15.2347C109.211 15.2347 109.092 15.1152 109.092 14.9691C109.092 14.823 109.211 14.7035 109.357 14.7035ZM100.578 14.7068C100.724 14.7068 100.844 14.8263 100.844 14.9724C100.844 15.1185 100.724 15.238 100.578 15.238C100.432 15.238 100.313 15.1185 100.313 14.9724C100.313 14.8263 100.432 14.7068 100.578 14.7068ZM106.153 15.6365C106.03 15.8523 105.851 16.0316 105.632 16.1544C105.961 16.4234 106.279 16.699 106.588 16.9746C106.528 17.0775 106.545 17.197 106.565 17.3165L106.771 17.5224C107.06 17.3165 107.315 17.0609 107.521 16.772L107.315 16.5662C107.182 16.5496 107.083 16.5396 106.973 16.5894C106.698 16.2806 106.422 15.9619 106.153 15.6365ZM103.782 15.6365C103.513 15.9619 103.238 16.2806 102.962 16.5894C102.859 16.5296 102.74 16.5462 102.624 16.5662L102.414 16.772C102.62 17.0642 102.876 17.3199 103.168 17.5224L103.374 17.3165C103.391 17.1837 103.401 17.0841 103.351 16.9746C103.66 16.699 103.978 16.4234 104.304 16.1544C104.088 16.0316 103.905 15.8523 103.782 15.6365ZM104.599 16.2773C104.639 16.699 104.672 17.1206 104.695 17.5357C104.579 17.5622 104.503 17.6619 104.437 17.7581V18.047C104.802 18.1035 105.16 18.1001 105.499 18.047V17.7581C105.416 17.6519 105.353 17.5755 105.24 17.5324C105.263 17.1206 105.293 16.699 105.333 16.2806C105.077 16.3238 104.808 16.3371 104.599 16.2773ZM102.053 17.8876C102.155 17.9906 102.155 18.1599 102.053 18.2628C101.95 18.3658 101.78 18.3658 101.677 18.2628C101.574 18.1599 101.574 17.9906 101.677 17.8876C101.794 17.788 101.95 17.788 102.053 17.8876ZM108.262 17.8876C108.364 17.9906 108.364 18.1599 108.262 18.2628C108.159 18.3658 107.989 18.3658 107.886 18.2628C107.783 18.1599 107.783 17.9906 107.886 17.8876C108.003 17.788 108.162 17.788 108.262 17.8876ZM109.477 18.306C109.148 18.7509 108.75 19.1494 108.305 19.4781L108.677 19.8533C108.816 19.7802 108.942 19.6806 109.055 19.5876C109.125 19.8001 109.278 20.0292 109.477 20.2285C109.892 20.6435 110.393 20.8095 110.602 20.6037C110.808 20.3945 110.642 19.8931 110.227 19.4781C110.028 19.2788 109.799 19.1261 109.586 19.0564C109.693 18.9402 109.772 18.8173 109.852 18.6779L109.477 18.306ZM100.459 18.306L100.087 18.6779C100.163 18.814 100.256 18.9501 100.353 19.0564C100.14 19.1261 99.9109 19.2788 99.7094 19.4781C99.2953 19.8931 99.1277 20.3945 99.3342 20.6037C99.5414 20.8128 100.047 20.6435 100.462 20.2285C100.661 20.0292 100.814 19.8001 100.884 19.5876C101 19.6939 101.123 19.7736 101.262 19.8533L101.634 19.4814C101.186 19.1494 100.791 18.7542 100.459 18.306ZM104.968 19.0929C105.114 19.0929 105.233 19.2124 105.233 19.3585C105.233 19.5046 105.114 19.6242 104.968 19.6242C104.822 19.6242 104.702 19.5046 104.702 19.3585C104.702 19.2124 104.822 19.0929 104.968 19.0929ZM104.138 20.5206V21.0453C104.287 21.0917 104.45 21.115 104.593 21.1249C104.493 21.3242 104.437 21.5931 104.437 21.8753C104.437 22.463 104.676 22.9378 104.968 22.9378C105.26 22.9378 105.499 22.463 105.499 21.8753C105.499 21.5931 105.443 21.3242 105.343 21.1249C105.499 21.1183 105.642 21.0884 105.798 21.0453V20.5173C105.23 20.6003 104.666 20.597 104.138 20.5206Z" fill="#061556" fill-opacity="0.48"/>
    <circle cx="105" cy="15" r="1" fill="#061556"/>
    <circle cx="105.2" cy="8.2" r="0.2" fill="#061556"/>
    <circle cx="110.2" cy="10.2" r="0.2" fill="#061556"/>
    <circle cx="110.2" cy="20.2" r="0.2" fill="#061556"/>
    <circle cx="100.2" cy="20.2" r="0.2" fill="#061556"/>
    <circle cx="98.2" cy="15.2" r="0.2" fill="#061556"/>
    <circle cx="100.2" cy="10.2" r="0.2" fill="#061556"/>
    <path d="M119.248 19.096C118.491 19.096 117.813 18.9413 117.216 18.632C116.619 18.312 116.144 17.848 115.792 17.24C115.451 16.632 115.28 15.8907 115.28 15.016V10.856C115.28 10.6853 115.339 10.5413 115.456 10.424C115.573 10.3067 115.717 10.248 115.888 10.248C116.069 10.248 116.219 10.3067 116.336 10.424C116.453 10.5413 116.512 10.6853 116.512 10.856V15.016C116.512 15.6773 116.635 16.2213 116.88 16.648C117.136 17.0747 117.477 17.3947 117.904 17.608C118.341 17.8213 118.832 17.928 119.376 17.928C119.899 17.928 120.368 17.8267 120.784 17.624C121.211 17.4213 121.547 17.144 121.792 16.792C122.037 16.44 122.16 16.04 122.16 15.592H123.04C123.008 16.264 122.821 16.8667 122.48 17.4C122.149 17.9227 121.701 18.3387 121.136 18.648C120.571 18.9467 119.941 19.096 119.248 19.096ZM122.768 19C122.587 19 122.437 18.9467 122.32 18.84C122.213 18.7227 122.16 18.568 122.16 18.376V10.856C122.16 10.6747 122.213 10.5307 122.32 10.424C122.437 10.3067 122.587 10.248 122.768 10.248C122.949 10.248 123.099 10.3067 123.216 10.424C123.333 10.5307 123.392 10.6747 123.392 10.856V18.376C123.392 18.568 123.333 18.7227 123.216 18.84C123.099 18.9467 122.949 19 122.768 19ZM126.78 13.608C126.812 12.9467 126.983 12.3547 127.292 11.832C127.612 11.3093 128.023 10.8987 128.524 10.6C129.036 10.3013 129.601 10.152 130.22 10.152C130.711 10.152 131.089 10.2213 131.356 10.36C131.623 10.4987 131.724 10.7013 131.66 10.968C131.617 11.128 131.543 11.2347 131.436 11.288C131.34 11.3413 131.217 11.3627 131.068 11.352C130.929 11.3413 130.769 11.3307 130.588 11.32C129.991 11.2667 129.457 11.3307 128.988 11.512C128.529 11.6827 128.161 11.9493 127.884 12.312C127.617 12.6747 127.484 13.1067 127.484 13.608H126.78ZM126.876 19C126.684 19 126.535 18.9467 126.428 18.84C126.321 18.7333 126.268 18.584 126.268 18.392V10.856C126.268 10.664 126.321 10.5147 126.428 10.408C126.535 10.3013 126.684 10.248 126.876 10.248C127.068 10.248 127.217 10.3013 127.324 10.408C127.431 10.5147 127.484 10.664 127.484 10.856V18.392C127.484 18.584 127.431 18.7333 127.324 18.84C127.217 18.9467 127.068 19 126.876 19Z" fill="#061556" fill-opacity="0.48"/>
    <path d="M54.079 27.29C52.5323 27.29 51.0727 26.9903 49.7 26.391C48.3467 25.7723 47.148 24.9313 46.104 23.868C45.06 22.7853 44.2383 21.548 43.639 20.156C43.0397 18.7447 42.74 17.2463 42.74 15.661C42.74 14.095 43.03 12.616 43.61 11.224C44.19 9.81267 44.9923 8.57533 46.017 7.512C47.061 6.42933 48.2693 5.58833 49.642 4.989C51.0147 4.37033 52.4937 4.061 54.079 4.061C55.413 4.061 56.6793 4.27367 57.878 4.699C59.0767 5.12433 60.198 5.772 61.242 6.642C61.416 6.77733 61.503 6.97067 61.503 7.222C61.503 7.454 61.4257 7.66667 61.271 7.86C61.1163 8.034 60.9037 8.121 60.633 8.121C60.5557 8.121 60.4783 8.11133 60.401 8.092C60.3237 8.05333 60.2463 8.01467 60.169 7.976C60.0917 7.918 60.0047 7.85033 59.908 7.773C59.1347 7.077 58.255 6.57433 57.269 6.265C56.283 5.95567 55.2197 5.801 54.079 5.801C52.7837 5.801 51.556 6.07167 50.396 6.613C49.236 7.135 48.2113 7.86 47.322 8.788C46.4327 9.69667 45.7367 10.7407 45.234 11.92C44.7313 13.0993 44.48 14.3463 44.48 15.661C44.48 17.0143 44.7313 18.2903 45.234 19.489C45.7367 20.6877 46.423 21.7413 47.293 22.65C48.1823 23.5587 49.207 24.274 50.367 24.796C51.527 25.2987 52.7643 25.55 54.079 25.55C55.2197 25.55 56.283 25.376 57.269 25.028C58.2743 24.68 59.212 24.1483 60.082 23.433C60.2367 23.2977 60.4203 23.2493 60.633 23.288C60.8457 23.3267 61.0293 23.4233 61.184 23.578C61.3387 23.7327 61.416 23.9357 61.416 24.187C61.416 24.303 61.4063 24.4093 61.387 24.506C61.3677 24.6027 61.3097 24.6993 61.213 24.796C60.2657 25.7433 59.1637 26.4007 57.907 26.768C56.6697 27.116 55.3937 27.29 54.079 27.29Z" fill="#061556" fill-opacity="0.42"/>
    <path d="M48.952 14.608C48.984 13.9467 49.1547 13.3547 49.464 12.832C49.784 12.3093 50.1947 11.8987 50.696 11.6C51.208 11.3013 51.7733 11.152 52.392 11.152C52.8827 11.152 53.2613 11.2213 53.528 11.36C53.7947 11.4987 53.896 11.7013 53.832 11.968C53.7893 12.128 53.7147 12.2347 53.608 12.288C53.512 12.3413 53.3893 12.3627 53.24 12.352C53.1013 12.3413 52.9413 12.3307 52.76 12.32C52.1627 12.2667 51.6293 12.3307 51.16 12.512C50.7013 12.6827 50.3333 12.9493 50.056 13.312C49.7893 13.6747 49.656 14.1067 49.656 14.608H48.952ZM49.048 20C48.856 20 48.7067 19.9467 48.6 19.84C48.4933 19.7333 48.44 19.584 48.44 19.392V11.856C48.44 11.664 48.4933 11.5147 48.6 11.408C48.7067 11.3013 48.856 11.248 49.048 11.248C49.24 11.248 49.3893 11.3013 49.496 11.408C49.6027 11.5147 49.656 11.664 49.656 11.856V19.392C49.656 19.584 49.6027 19.7333 49.496 19.84C49.3893 19.9467 49.24 20 49.048 20ZM59.5761 20.096C58.8188 20.096 58.1415 19.9413 57.5441 19.632C56.9468 19.312 56.4721 18.848 56.1201 18.24C55.7788 17.632 55.6081 16.8907 55.6081 16.016V11.856C55.6081 11.6853 55.6668 11.5413 55.7841 11.424C55.9015 11.3067 56.0455 11.248 56.2161 11.248C56.3975 11.248 56.5468 11.3067 56.6641 11.424C56.7815 11.5413 56.8401 11.6853 56.8401 11.856V16.016C56.8401 16.6773 56.9628 17.2213 57.2081 17.648C57.4641 18.0747 57.8055 18.3947 58.2321 18.608C58.6695 18.8213 59.1601 18.928 59.7041 18.928C60.2268 18.928 60.6961 18.8267 61.1121 18.624C61.5388 18.4213 61.8748 18.144 62.1201 17.792C62.3655 17.44 62.4881 17.04 62.4881 16.592H63.3681C63.3361 17.264 63.1495 17.8667 62.8081 18.4C62.4775 18.9227 62.0295 19.3387 61.4641 19.648C60.8988 19.9467 60.2695 20.096 59.5761 20.096ZM63.0961 20C62.9148 20 62.7655 19.9467 62.6481 19.84C62.5415 19.7227 62.4881 19.568 62.4881 19.376V11.856C62.4881 11.6747 62.5415 11.5307 62.6481 11.424C62.7655 11.3067 62.9148 11.248 63.0961 11.248C63.2775 11.248 63.4268 11.3067 63.5441 11.424C63.6615 11.5307 63.7201 11.6747 63.7201 11.856V19.376C63.7201 19.568 63.6615 19.7227 63.5441 19.84C63.4268 19.9467 63.2775 20 63.0961 20ZM67.4763 20C67.2843 20 67.1296 19.9467 67.0123 19.84C66.9056 19.7227 66.8523 19.568 66.8523 19.376V11.872C66.8523 11.68 66.9056 11.5307 67.0123 11.424C67.1296 11.3067 67.2843 11.248 67.4763 11.248C67.6576 11.248 67.8016 11.3067 67.9083 11.424C68.0256 11.5307 68.0843 11.68 68.0843 11.872V19.376C68.0843 19.568 68.0256 19.7227 67.9083 19.84C67.8016 19.9467 67.6576 20 67.4763 20ZM67.4603 9.584C67.2256 9.584 67.0229 9.49867 66.8523 9.328C66.6816 9.15733 66.5963 8.94933 66.5963 8.704C66.5963 8.43733 66.6816 8.22933 66.8523 8.08C67.0336 7.92 67.2416 7.84 67.4763 7.84C67.7003 7.84 67.8976 7.92 68.0683 8.08C68.2496 8.22933 68.3403 8.43733 68.3403 8.704C68.3403 8.94933 68.2549 9.15733 68.0843 9.328C67.9136 9.49867 67.7056 9.584 67.4603 9.584ZM74.2773 20.08C73.6479 20.08 73.0239 19.9733 72.4053 19.76C71.7866 19.5467 71.2853 19.2267 70.9013 18.8C70.7839 18.672 70.7359 18.528 70.7573 18.368C70.7786 18.208 70.8586 18.0693 70.9973 17.952C71.1466 17.8453 71.3013 17.8027 71.4613 17.824C71.6213 17.8453 71.7546 17.9147 71.8613 18.032C72.1173 18.3307 72.4533 18.56 72.8693 18.72C73.2959 18.88 73.7653 18.96 74.2773 18.96C75.0666 18.96 75.6373 18.8267 75.9893 18.56C76.3413 18.2827 76.5226 17.952 76.5333 17.568C76.5333 17.184 76.3519 16.8693 75.9893 16.624C75.6266 16.368 75.0293 16.1707 74.1973 16.032C73.1199 15.8613 72.3306 15.5627 71.8293 15.136C71.3279 14.7093 71.0773 14.2027 71.0773 13.616C71.0773 13.072 71.2213 12.6187 71.5093 12.256C71.7973 11.8933 72.1813 11.6213 72.6613 11.44C73.1413 11.2587 73.6693 11.168 74.2453 11.168C74.9599 11.168 75.5733 11.2907 76.0853 11.536C76.6079 11.7813 77.0293 12.112 77.3493 12.528C77.4559 12.6667 77.4986 12.8107 77.4773 12.96C77.4559 13.1093 77.3706 13.232 77.2213 13.328C77.0933 13.4027 76.9439 13.4293 76.7733 13.408C76.6133 13.376 76.4746 13.296 76.3573 13.168C76.0906 12.8587 75.7813 12.6347 75.4293 12.496C75.0773 12.3467 74.6719 12.272 74.2133 12.272C73.6266 12.272 73.1573 12.3947 72.8053 12.64C72.4533 12.8747 72.2773 13.1733 72.2773 13.536C72.2773 13.7813 72.3413 13.9947 72.4693 14.176C72.6079 14.3573 72.8373 14.5173 73.1573 14.656C73.4879 14.7947 73.9466 14.912 74.5333 15.008C75.3333 15.136 75.9626 15.328 76.4213 15.584C76.8906 15.8293 77.2213 16.1227 77.4133 16.464C77.6159 16.7947 77.7173 17.1573 77.7173 17.552C77.7173 18.0533 77.5679 18.496 77.2693 18.88C76.9813 19.2533 76.5759 19.5467 76.0533 19.76C75.5413 19.9733 74.9493 20.08 74.2773 20.08ZM83.8143 20.08C82.9503 20.08 82.1823 19.8933 81.5103 19.52C80.8489 19.136 80.3262 18.608 79.9423 17.936C79.5689 17.264 79.3823 16.496 79.3823 15.632C79.3823 14.7573 79.5583 13.9893 79.9103 13.328C80.2729 12.656 80.7689 12.128 81.3983 11.744C82.0276 11.36 82.7529 11.168 83.5743 11.168C84.3849 11.168 85.0889 11.3547 85.6863 11.728C86.2943 12.0907 86.7636 12.5973 87.0943 13.248C87.4249 13.8987 87.5903 14.64 87.5903 15.472C87.5903 15.6427 87.5369 15.7813 87.4303 15.888C87.3236 15.984 87.1849 16.032 87.0143 16.032H80.2143V15.008H87.1423L86.4543 15.504C86.4649 14.8853 86.3529 14.3307 86.1183 13.84C85.8836 13.3493 85.5476 12.9653 85.1103 12.688C84.6836 12.4107 84.1716 12.272 83.5743 12.272C82.9663 12.272 82.4329 12.416 81.9743 12.704C81.5156 12.992 81.1583 13.392 80.9023 13.904C80.6569 14.4053 80.5343 14.9813 80.5343 15.632C80.5343 16.2827 80.6729 16.8587 80.9503 17.36C81.2383 17.8613 81.6276 18.256 82.1183 18.544C82.6089 18.832 83.1743 18.976 83.8143 18.976C84.1983 18.976 84.5823 18.912 84.9663 18.784C85.3609 18.6453 85.6756 18.4747 85.9103 18.272C86.0276 18.176 86.1609 18.128 86.3103 18.128C86.4596 18.1173 86.5876 18.1547 86.6943 18.24C86.8329 18.368 86.9023 18.5067 86.9023 18.656C86.9129 18.8053 86.8543 18.9333 86.7263 19.04C86.3743 19.3387 85.9263 19.5893 85.3823 19.792C84.8383 19.984 84.3156 20.08 83.8143 20.08Z" fill="#061556"/>
    <path d="M9.44 20.16C8.75733 20.16 8.12267 20.064 7.536 19.872C6.96 19.6693 6.45867 19.3867 6.032 19.024C5.60533 18.6613 5.28 18.24 5.056 17.76C4.97067 17.5893 4.96533 17.4347 5.04 17.296C5.12533 17.1467 5.264 17.0453 5.456 16.992C5.60533 16.9493 5.74933 16.9653 5.888 17.04C6.03733 17.1147 6.14933 17.2267 6.224 17.376C6.384 17.6853 6.61867 17.9627 6.928 18.208C7.23733 18.4533 7.60533 18.6453 8.032 18.784C8.45867 18.912 8.928 18.976 9.44 18.976C10.0053 18.976 10.5067 18.8853 10.944 18.704C11.3813 18.512 11.7227 18.24 11.968 17.888C12.224 17.5253 12.352 17.088 12.352 16.576C12.352 15.9253 12.112 15.3653 11.632 14.896C11.152 14.4267 10.4 14.128 9.376 14C8.128 13.8507 7.152 13.4667 6.448 12.848C5.744 12.2187 5.392 11.4507 5.392 10.544C5.392 9.89333 5.56267 9.328 5.904 8.848C6.256 8.368 6.736 8 7.344 7.744C7.952 7.47733 8.65067 7.344 9.44 7.344C10.0267 7.344 10.56 7.44 11.04 7.632C11.52 7.81333 11.936 8.05867 12.288 8.368C12.6507 8.66667 12.944 8.99733 13.168 9.36C13.2747 9.53067 13.3067 9.696 13.264 9.856C13.232 10.016 13.1413 10.1387 12.992 10.224C12.832 10.2987 12.6667 10.3093 12.496 10.256C12.336 10.2027 12.2133 10.1013 12.128 9.952C11.968 9.70667 11.7653 9.47733 11.52 9.264C11.2853 9.04 10.9973 8.864 10.656 8.736C10.3147 8.608 9.904 8.53867 9.424 8.528C8.58133 8.528 7.904 8.70933 7.392 9.072C6.88 9.424 6.624 9.94133 6.624 10.624C6.624 10.9867 6.72 11.3227 6.912 11.632C7.104 11.9307 7.41867 12.192 7.856 12.416C8.304 12.6293 8.90133 12.7893 9.648 12.896C10.9813 13.088 11.968 13.4987 12.608 14.128C13.2587 14.7467 13.584 15.5573 13.584 16.56C13.584 17.136 13.4773 17.648 13.264 18.096C13.0613 18.544 12.768 18.9227 12.384 19.232C12.0107 19.5307 11.568 19.76 11.056 19.92C10.5547 20.08 10.016 20.16 9.44 20.16ZM16.6578 16.432C16.4658 16.432 16.3111 16.3733 16.1938 16.256C16.0871 16.1387 16.0338 15.9893 16.0338 15.808V8.128C16.0338 7.936 16.0871 7.78667 16.1938 7.68C16.3111 7.56267 16.4658 7.504 16.6578 7.504C16.8391 7.504 16.9831 7.56267 17.0898 7.68C17.2071 7.78667 17.2658 7.936 17.2658 8.128V15.808C17.2658 15.9893 17.2071 16.1387 17.0898 16.256C16.9831 16.3733 16.8391 16.432 16.6578 16.432ZM23.5378 20C23.3564 20 23.2071 19.9413 23.0898 19.824C22.9724 19.7067 22.9138 19.5627 22.9138 19.392V15.232C22.9138 14.5707 22.7858 14.0267 22.5298 13.6C22.2844 13.1733 21.9431 12.8533 21.5058 12.64C21.0791 12.4267 20.5938 12.32 20.0498 12.32C19.5271 12.32 19.0524 12.4213 18.6258 12.624C18.2098 12.8267 17.8791 13.104 17.6338 13.456C17.3884 13.808 17.2658 14.208 17.2658 14.656H16.3858C16.4071 13.984 16.5884 13.3867 16.9298 12.864C17.2711 12.3307 17.7244 11.9147 18.2898 11.616C18.8551 11.3067 19.4844 11.152 20.1778 11.152C20.9351 11.152 21.6124 11.312 22.2098 11.632C22.8071 11.9413 23.2764 12.4 23.6178 13.008C23.9698 13.616 24.1458 14.3573 24.1458 15.232V19.392C24.1458 19.5627 24.0871 19.7067 23.9698 19.824C23.8524 19.9413 23.7084 20 23.5378 20ZM16.6578 20C16.4658 20 16.3111 19.9467 16.1938 19.84C16.0871 19.7227 16.0338 19.5733 16.0338 19.392V11.872C16.0338 11.68 16.0871 11.5307 16.1938 11.424C16.3111 11.3067 16.4658 11.248 16.6578 11.248C16.8391 11.248 16.9831 11.3067 17.0898 11.424C17.2071 11.5307 17.2658 11.68 17.2658 11.872V19.392C17.2658 19.5733 17.2071 19.7227 17.0898 19.84C16.9831 19.9467 16.8391 20 16.6578 20ZM27.7419 20C27.5499 20 27.3952 19.9467 27.2779 19.84C27.1712 19.7227 27.1179 19.568 27.1179 19.376V11.872C27.1179 11.68 27.1712 11.5307 27.2779 11.424C27.3952 11.3067 27.5499 11.248 27.7419 11.248C27.9232 11.248 28.0672 11.3067 28.1739 11.424C28.2912 11.5307 28.3499 11.68 28.3499 11.872V19.376C28.3499 19.568 28.2912 19.7227 28.1739 19.84C28.0672 19.9467 27.9232 20 27.7419 20ZM27.7259 9.584C27.4912 9.584 27.2885 9.49867 27.1179 9.328C26.9472 9.15733 26.8619 8.94933 26.8619 8.704C26.8619 8.43733 26.9472 8.22933 27.1179 8.08C27.2992 7.92 27.5072 7.84 27.7419 7.84C27.9659 7.84 28.1632 7.92 28.3339 8.08C28.5152 8.22933 28.6059 8.43733 28.6059 8.704C28.6059 8.94933 28.5205 9.15733 28.3499 9.328C28.1792 9.49867 27.9712 9.584 27.7259 9.584ZM32.1109 23.744C31.9189 23.744 31.7642 23.6853 31.6469 23.568C31.5402 23.4613 31.4869 23.312 31.4869 23.12V15.568C31.4975 14.736 31.6949 13.9893 32.0789 13.328C32.4735 12.656 33.0015 12.128 33.6629 11.744C34.3349 11.36 35.0869 11.168 35.9189 11.168C36.7722 11.168 37.5349 11.3653 38.2069 11.76C38.8789 12.144 39.4069 12.672 39.7909 13.344C40.1855 14.016 40.3829 14.7787 40.3829 15.632C40.3829 16.4747 40.1909 17.232 39.8069 17.904C39.4335 18.576 38.9215 19.1093 38.2709 19.504C37.6202 19.888 36.8842 20.08 36.0629 20.08C35.3482 20.08 34.6975 19.9307 34.1109 19.632C33.5349 19.3227 33.0709 18.9173 32.7189 18.416V23.12C32.7189 23.312 32.6602 23.4613 32.5429 23.568C32.4362 23.6853 32.2922 23.744 32.1109 23.744ZM35.9189 18.96C36.5375 18.96 37.0922 18.816 37.5829 18.528C38.0735 18.24 38.4575 17.8453 38.7349 17.344C39.0229 16.832 39.1669 16.2613 39.1669 15.632C39.1669 14.992 39.0229 14.4213 38.7349 13.92C38.4575 13.4187 38.0735 13.024 37.5829 12.736C37.0922 12.4373 36.5375 12.288 35.9189 12.288C35.3109 12.288 34.7615 12.4373 34.2709 12.736C33.7802 13.024 33.3962 13.4187 33.1189 13.92C32.8415 14.4213 32.7029 14.992 32.7029 15.632C32.7029 16.2613 32.8415 16.832 33.1189 17.344C33.3962 17.8453 33.7802 18.24 34.2709 18.528C34.7615 18.816 35.3109 18.96 35.9189 18.96Z" fill="#061556"/>
</svg>
