<svg width="200" height="50" viewBox="0 0 136 29" fill="none" xmlns="http://www.w3.org/2000/svg">
    <path d="M4.15513 10.3574H5.28403V11.3535H4.15513V10.3574ZM2.96071 11.9512H6.41204L6.61657 13.3005L4.71958 12.3744L2.82259 13.3005L2.96071 11.9512ZM4.71958 13.0552V16.1878C4.53995 16.1912 4.35989 16.1957 4.17963 16.2012H2.63701L1.93739 14.4641L4.71958 13.0552ZM6.11976 13.7773C6.41314 13.7773 6.65101 14.0152 6.65101 14.3086C6.65101 14.602 6.41314 14.8398 6.11976 14.8398C5.82634 14.8398 5.58851 14.602 5.58851 14.3086C5.58851 14.0152 5.82634 13.7773 6.11976 13.7773Z"
          fill="#CBCBCB"/>
    <path d="M55.8424 1.53961C55.7098 1.44614 55.5857 1.3411 55.4717 1.22572L55.3227 1.06932L55.115 1.12153C54.759 1.21208 54.4133 1.23764 54.062 1.16039C53.8776 1.11922 53.6994 1.05426 53.5318 0.967123C53.3513 0.879407 53.1802 0.76237 53 0.625732C53.0406 0.853599 53.1563 1.05849 53.2988 1.24633C53.4482 1.42773 53.6353 1.59196 53.8572 1.70289C54.2383 1.90406 54.6904 1.93629 55.1018 1.85919C55.2291 1.96574 55.357 2.04719 55.5017 2.12336C55.7008 2.22755 55.919 2.2981 56.1434 2.33019C56.5937 2.3927 57.0619 2.25853 57.3596 1.9623C56.9418 1.98593 56.5892 1.93264 56.2806 1.78931C56.1265 1.72114 55.9796 1.63748 55.8424 1.53961ZM60.4382 2.52238C60.3265 2.48453 60.2215 2.42922 60.1271 2.35852C60.0432 2.2957 59.9675 2.2225 59.902 2.14067C59.84 2.06487 59.786 1.98291 59.7407 1.89609L59.6043 1.60566L59.3059 1.69775C59.0197 1.78572 58.7456 1.84415 58.4725 1.82856C58.2003 1.81524 57.9091 1.71781 57.6179 1.48582C57.6402 1.86852 57.9419 2.22366 58.3318 2.37951C58.6326 2.49962 58.9549 2.50806 59.2525 2.45475C59.3059 2.52001 59.3635 2.57827 59.4301 2.63697C59.5696 2.75425 59.7382 2.8449 59.9165 2.88703C60.2784 2.97397 60.6373 2.86089 60.8598 2.63066C60.7005 2.59597 60.5607 2.57064 60.4382 2.52238Z"
          fill="#2C98BB"/>
    <path d="M121.602 22.113C121.59 22.129 121.578 22.1457 121.568 22.163C121.545 22.204 121.525 22.2464 121.508 22.29C121.492 22.3299 121.474 22.369 121.454 22.407C121.37 22.5552 121.267 22.6911 121.146 22.811C120.86 23.099 120.36 23.415 119.5 23.415C119.367 23.415 119.24 23.4677 119.146 23.5614C119.053 23.6552 119 23.7824 119 23.915C119 24.0476 119.053 24.1748 119.146 24.2686C119.24 24.3623 119.367 24.415 119.5 24.415C120.641 24.415 121.391 23.981 121.854 23.519C121.897 23.475 121.938 23.432 121.976 23.389C122.001 23.42 122.026 23.453 122.053 23.485C122.43 23.937 123.06 24.415 124 24.415C124.94 24.415 125.57 23.937 125.947 23.485L126 23.419L126.053 23.485C126.43 23.937 127.06 24.415 128 24.415C128.94 24.415 129.57 23.937 129.947 23.485C129.974 23.453 129.999 23.42 130.024 23.388C130.062 23.431 130.103 23.475 130.146 23.518C130.609 23.981 131.359 24.415 132.5 24.415C132.633 24.415 132.76 24.3623 132.854 24.2686C132.947 24.1748 133 24.0476 133 23.915C133 23.7824 132.947 23.6552 132.854 23.5614C132.76 23.4677 132.633 23.415 132.5 23.415C131.641 23.415 131.141 23.099 130.854 22.811C130.692 22.6521 130.563 22.4632 130.474 22.255C130.44 22.1565 130.376 22.0711 130.291 22.0106C130.206 21.9502 130.105 21.9177 130 21.9177C129.896 21.9177 129.795 21.9502 129.71 22.0106C129.625 22.0711 129.561 22.1565 129.527 22.255C129.443 22.4687 129.325 22.6678 129.179 22.845C128.93 23.143 128.559 23.415 127.999 23.415C127.44 23.415 127.069 23.143 126.821 22.845C126.676 22.6691 126.559 22.4718 126.475 22.26C126.454 22.195 126.42 22.135 126.375 22.0837C126.33 22.0324 126.275 21.9909 126.213 21.9618C126.152 21.9327 126.085 21.9167 126.016 21.9147C125.948 21.9126 125.88 21.9247 125.817 21.95C125.748 21.9767 125.686 22.0183 125.636 22.072C125.585 22.1256 125.547 22.1898 125.524 22.26C125.44 22.4718 125.323 22.6691 125.178 22.845C124.93 23.143 124.56 23.415 124 23.415C123.44 23.415 123.07 23.143 122.822 22.845C122.715 22.7159 122.624 22.575 122.549 22.425C122.531 22.3881 122.514 22.3504 122.499 22.312C122.479 22.262 122.459 22.21 122.432 22.164C122.371 22.0588 122.273 21.9795 122.158 21.941L122.153 21.939C122.054 21.907 121.948 21.9065 121.85 21.9377C121.751 21.9689 121.664 22.0302 121.602 22.113Z"
          fill="#13708E" fill-opacity="0.8"/>
    <path d="M10.2724 18.6805H13.0085C13.7556 18.7041 14.4899 18.7473 15.2048 18.812C13.2483 19.2955 11.573 19.1372 9.57581 18.706C9.80794 18.6959 10.0401 18.6874 10.2724 18.6805ZM5.86085 19.6555C5.59712 19.6547 5.34065 19.6632 5.09439 19.6834L5.14316 20.2791C6.94908 20.1312 9.55964 20.6938 11.4252 20.8503C13.2726 21.0052 15.0764 20.7944 17.025 20.4016L16.9069 19.8158C14.9878 20.2026 13.2453 20.4032 11.4752 20.2548C9.90954 20.1235 7.70694 19.6609 5.86085 19.6555ZM6.53221 20.827C6.1272 20.8244 5.68929 20.8475 5.25333 20.8892C4.38142 20.9728 3.54005 21.1269 3 21.3627L3.23916 21.9104C3.64763 21.7321 4.47578 21.5642 5.31037 21.4842C6.14503 21.4042 7.00894 21.4074 7.49667 21.5049C8.59091 21.7237 10.5317 22.0673 12.0993 22.0177L12.0804 21.4204C10.6177 21.4667 8.69125 21.1342 7.61381 20.9188C7.30933 20.858 6.93726 20.8297 6.53221 20.827Z"
          fill="#CBCBCB"/>
    <path d="M94.9041 6.14911L92.1859 6.46096C91.4409 6.52272 90.7065 6.5635 89.9888 6.58066C91.8775 5.87735 93.5599 5.84369 95.5932 6.04445C95.3638 6.08092 95.1341 6.11581 94.9041 6.14911ZM99.1758 4.67772C99.4379 4.64842 99.6917 4.61071 99.9341 4.56258L99.8177 3.97633C98.0404 4.32911 95.3827 4.06769 93.5116 4.12488C91.6585 4.18156 89.8905 4.59658 87.9993 5.20884L88.1834 5.77743C90.046 5.1744 91.7542 4.7765 93.5297 4.72223C95.1001 4.67422 97.3411 4.88272 99.1758 4.67772ZM98.3753 3.5903C98.7779 3.54674 99.2104 3.47394 99.6387 3.38275C100.495 3.20032 101.314 2.95139 101.823 2.65554L101.523 2.13865C101.138 2.36241 100.334 2.62354 99.5142 2.7982C98.6941 2.97283 97.8355 3.06802 97.3398 3.02676C96.2278 2.93413 94.2604 2.81396 92.7088 3.0419L92.7956 3.63318C94.2435 3.42048 96.1953 3.53121 97.2903 3.6224C97.5997 3.64816 97.9726 3.63382 98.3753 3.5903Z"
          fill="#CBCBCB"/>
    <path d="M95.2724 18.6805H98.0085C98.7556 18.7041 99.4899 18.7473 100.205 18.812C98.2483 19.2955 96.573 19.1372 94.5758 18.706C94.8079 18.6959 95.0401 18.6874 95.2724 18.6805ZM90.8608 19.6555C90.5971 19.6547 90.3407 19.6632 90.0944 19.6834L90.1432 20.2791C91.9491 20.1312 94.5596 20.6938 96.4252 20.8503C98.2726 21.0052 100.076 20.7944 102.025 20.4016L101.907 19.8158C99.9878 20.2026 98.2453 20.4032 96.4752 20.2548C94.9095 20.1235 92.7069 19.6609 90.8608 19.6555ZM91.5322 20.827C91.1272 20.8244 90.6893 20.8475 90.2533 20.8892C89.3814 20.9728 88.54 21.1269 88 21.3627L88.2392 21.9104C88.6476 21.7321 89.4758 21.5642 90.3104 21.4842C91.145 21.4042 92.0089 21.4074 92.4967 21.5049C93.5909 21.7237 95.5317 22.0673 97.0993 22.0177L97.0804 21.4204C95.6177 21.4667 93.6912 21.1342 92.6138 20.9188C92.3093 20.858 91.9373 20.8297 91.5322 20.827Z"
          fill="#CBCBCB"/>
    <path d="M7.27238 15.6805H10.0085C10.7556 15.7041 11.4899 15.7473 12.2048 15.812C10.2483 16.2955 8.57301 16.1372 6.57581 15.706C6.80794 15.6959 7.04014 15.6874 7.27238 15.6805ZM2.86085 16.6555C2.59712 16.6547 2.34065 16.6632 2.09439 16.6834L2.14316 17.2791C3.94908 17.1312 6.55964 17.6938 8.42516 17.8503C10.2726 18.0052 12.0764 17.7944 14.025 17.4016L13.9069 16.8158C11.9878 17.2026 10.2453 17.4032 8.47516 17.2548C6.90954 17.1235 4.70694 16.6609 2.86085 16.6555ZM3.53221 17.827C3.1272 17.8244 2.68929 17.8475 2.25333 17.8892C1.38142 17.9728 0.540049 18.1269 0 18.3627L0.239162 18.9104C0.647627 18.7321 1.47578 18.5642 2.31037 18.4842C3.14503 18.4042 4.00894 18.4074 4.49667 18.5049C5.59091 18.7237 7.53173 19.0673 9.09928 19.0177L9.08039 18.4204C7.61769 18.4667 5.69125 18.1342 4.61381 17.9188C4.30933 17.858 3.93726 17.8297 3.53221 17.827Z"
          fill="#307C94" fill-opacity="0.34"/>
    <path d="M98.2265 8.78762L95.5083 9.09947C94.7633 9.16124 94.0289 9.20201 93.3112 9.21917C95.1999 8.51586 96.8823 8.4822 98.9156 8.68297C98.6862 8.71943 98.4565 8.75432 98.2265 8.78762ZM102.498 7.31623C102.76 7.28693 103.014 7.24922 103.256 7.2011L103.14 6.61484C101.363 6.96763 98.7051 6.7062 96.8339 6.76339C94.9809 6.82007 93.2129 7.23509 91.3217 7.84735L91.5058 8.41594C93.3684 7.81291 95.0766 7.41501 96.8521 7.36074C98.4225 7.31273 100.663 7.52123 102.498 7.31623ZM101.698 6.22881C102.1 6.18526 102.533 6.11245 102.961 6.02127C103.818 5.83883 104.636 5.58991 105.146 5.29405L104.846 4.77716C104.46 5.00092 103.657 5.26206 102.837 5.43671C102.017 5.61134 101.158 5.70654 100.662 5.66528C99.5502 5.57265 97.5828 5.45247 96.0312 5.68042L96.118 6.27169C97.5659 6.059 99.5177 6.16973 100.613 6.26091C100.922 6.28667 101.295 6.27234 101.698 6.22881Z"
          fill="#CBCBCB"/>
    <path d="M96.825 22C96.643 22 96.489 21.944 96.363 21.832C96.251 21.706 96.195 21.552 96.195 21.37V5.599H97.455V21.37C97.455 21.552 97.392 21.706 97.266 21.832C97.154 21.944 97.007 22 96.825 22ZM90.882 6.733C90.714 6.733 90.574 6.684 90.462 6.586C90.364 6.474 90.315 6.334 90.315 6.166C90.315 5.998 90.364 5.865 90.462 5.767C90.574 5.655 90.714 5.599 90.882 5.599H102.768C102.936 5.599 103.069 5.655 103.167 5.767C103.279 5.865 103.335 5.998 103.335 6.166C103.335 6.334 103.279 6.474 103.167 6.586C103.069 6.684 102.936 6.733 102.768 6.733H90.882Z"
          fill="#061556"/>
    <circle cx="6.2" cy="14.2" r="0.2" fill="#37517E"/>
    <path d="M107.968 7C107.676 7 107.437 7.4758 107.437 8.0625C107.437 8.34373 107.493 8.61334 107.593 8.81189C107.437 8.81887 107.294 8.85041 107.138 8.89258V9.41885C107.705 9.3385 108.27 9.34215 108.798 9.41885V8.89258C108.648 8.84775 108.486 8.82252 108.343 8.81189C108.443 8.61334 108.499 8.34373 108.499 8.0625C108.499 7.4758 108.26 7 107.968 7ZM102.331 9.33385C102.123 9.54137 102.291 10.0451 102.706 10.4601C102.908 10.6593 103.137 10.8121 103.349 10.8818C103.243 10.998 103.163 11.1208 103.084 11.2603L103.459 11.6322C103.787 11.1872 104.186 10.7888 104.631 10.4601L104.259 10.0849C104.12 10.1579 103.993 10.2576 103.88 10.3505C103.811 10.138 103.658 9.90893 103.459 9.70971C103.193 9.50352 102.644 9.03236 102.331 9.33385ZM112.477 9.70904C112.278 9.90893 112.125 10.138 112.055 10.3505C111.939 10.2443 111.816 10.1646 111.677 10.0849L111.305 10.4601C111.75 10.7888 112.148 11.1872 112.477 11.6322L112.852 11.2603C112.779 11.1208 112.679 10.9947 112.586 10.8818C112.795 10.8087 113.025 10.6593 113.224 10.4601C113.639 10.0451 113.808 9.5407 113.599 9.33352C113.27 9.07221 112.669 9.52012 112.477 9.70904ZM107.752 9.95873C106.53 10.0119 105.421 10.4999 104.578 11.2736C104.468 11.3765 104.359 11.4828 104.272 11.579C103.499 12.4224 103.011 13.5314 102.957 14.7566C102.957 14.906 102.951 15.0587 102.961 15.1882C103.011 16.4101 103.499 17.5191 104.272 18.3624C104.375 18.4687 104.485 18.5783 104.578 18.6679C105.421 19.4382 106.53 19.9263 107.752 19.9794H107.759C107.895 19.9861 108.047 19.9794 108.184 19.9794C109.405 19.9263 110.514 19.4382 111.358 18.6646C111.467 18.5617 111.577 18.4554 111.663 18.3591C112.437 17.5158 112.925 16.4068 112.978 15.1849V15.1783C112.985 15.0388 112.978 14.8894 112.978 14.7533C112.925 13.5314 112.437 12.4224 111.663 11.579C111.56 11.4695 111.454 11.3599 111.358 11.2736C110.514 10.4999 109.405 10.0119 108.184 9.95873C108.034 9.95209 107.881 9.95873 107.752 9.95873ZM107.968 10.314C108.114 10.314 108.233 10.4335 108.233 10.5796C108.233 10.7257 108.114 10.8453 107.968 10.8453C107.822 10.8453 107.702 10.7257 107.702 10.5796C107.702 10.4335 107.822 10.314 107.968 10.314ZM108.197 11.257C109.05 11.3101 109.827 11.6488 110.431 12.1833C110.544 12.2863 110.654 12.3925 110.753 12.5054C111.288 13.1097 111.627 13.8867 111.68 14.7433C111.693 14.896 111.68 15.0488 111.68 15.1982C111.627 16.0515 111.288 16.8285 110.753 17.4328C110.651 17.5456 110.544 17.6552 110.431 17.7548C109.827 18.2894 109.05 18.6281 108.194 18.6812C108.041 18.6845 107.888 18.6945 107.739 18.6812C106.885 18.6281 106.108 18.2894 105.507 17.7548H105.504C105.391 17.6552 105.285 17.5456 105.185 17.4328C104.651 16.8318 104.309 16.0548 104.256 15.1982C104.252 15.0454 104.242 14.896 104.256 14.7466C104.272 13.89 104.697 13.0699 105.182 12.5054C105.285 12.3925 105.391 12.2829 105.504 12.1833C106.108 11.6488 106.885 11.3101 107.742 11.257C107.895 11.2437 108.047 11.257 108.197 11.257ZM105.049 11.6753C105.152 11.7783 105.152 11.9476 105.049 12.0505C104.946 12.1535 104.777 12.1535 104.674 12.0505C104.571 11.9476 104.571 11.7783 104.674 11.6753C104.79 11.579 104.946 11.579 105.049 11.6753ZM111.262 11.6753C111.364 11.7783 111.364 11.9476 111.262 12.0505C111.159 12.1535 110.989 12.1535 110.886 12.0505C110.783 11.9476 110.783 11.7783 110.886 11.6753C111.003 11.579 111.159 11.579 111.262 11.6753ZM107.437 11.8912V12.18C107.52 12.2863 107.583 12.3626 107.695 12.4058C107.672 12.8175 107.642 13.2392 107.603 13.6576C107.848 13.5945 108.107 13.5912 108.336 13.6609C108.296 13.2392 108.263 12.8175 108.24 12.4025C108.502 12.3328 108.499 12.1169 108.499 11.8912C108.134 11.8347 107.775 11.838 107.437 11.8912ZM106.165 12.4158C105.876 12.6216 105.62 12.8773 105.414 13.1662L105.62 13.372C105.753 13.3886 105.853 13.3986 105.962 13.3488C106.238 13.6576 106.513 13.9763 106.782 14.3017C106.905 14.0859 107.085 13.9066 107.304 13.7837C106.975 13.5148 106.656 13.2392 106.347 12.9636C106.407 12.8607 106.391 12.7412 106.371 12.6216L106.165 12.4158ZM109.771 12.4158L109.565 12.6216C109.542 12.7544 109.538 12.8507 109.585 12.9636C109.279 13.2392 108.957 13.5148 108.632 13.7837C108.848 13.9066 109.027 14.0859 109.15 14.305C109.419 13.9763 109.698 13.6576 109.97 13.3488C110.076 13.4052 110.192 13.3919 110.312 13.372L110.518 13.1662C110.312 12.8773 110.06 12.6216 109.771 12.4158ZM113.516 14.139C113.599 14.7068 113.592 15.2712 113.516 15.7992H114.044C114.094 15.6497 114.11 15.4871 114.12 15.3443C114.32 15.4439 114.592 15.5003 114.874 15.5003C115.462 15.5003 115.937 15.2613 115.937 14.9691C115.937 14.6769 115.462 14.4378 114.874 14.4378C114.592 14.4378 114.32 14.4943 114.12 14.5939C114.117 14.4378 114.087 14.2951 114.044 14.139H113.516ZM101.893 14.1423C101.848 14.2917 101.823 14.4478 101.813 14.5939C101.613 14.4943 101.343 14.4412 101.062 14.4412C100.476 14.4412 100 14.6802 100 14.9724C100 15.2646 100.476 15.5037 101.062 15.5037C101.344 15.5037 101.614 15.4472 101.813 15.3476C101.818 15.5037 101.85 15.6464 101.893 15.8025H102.417C102.338 15.2347 102.334 14.6703 102.417 14.1423H101.893ZM107.968 14.2054C107.539 14.2054 107.204 14.5441 107.204 14.9691C107.204 15.3941 107.539 15.7328 107.968 15.7328C108.393 15.7328 108.731 15.3941 108.731 14.9691C108.731 14.5441 108.393 14.2054 107.968 14.2054ZM110.757 14.4378C110.651 14.5208 110.574 14.5839 110.531 14.6968C110.119 14.6736 109.698 14.6437 109.279 14.6038C109.342 14.8529 109.342 15.1085 109.279 15.3376C109.698 15.2978 110.116 15.2646 110.531 15.2413C110.564 15.3576 110.657 15.4306 110.757 15.5003H111.046C111.102 15.1351 111.099 14.7765 111.046 14.4378H110.757ZM104.89 14.4412C104.833 14.8031 104.84 15.165 104.89 15.5037H105.179C105.282 15.4206 105.365 15.3609 105.401 15.2447C105.816 15.2646 106.235 15.2978 106.656 15.3376C106.59 15.0886 106.59 14.8329 106.653 14.6038C106.235 14.6437 105.813 14.6736 105.401 14.6968C105.371 14.5806 105.275 14.5076 105.179 14.4412H104.89ZM112.357 14.7035C112.503 14.7035 112.623 14.823 112.623 14.9691C112.623 15.1152 112.503 15.2347 112.357 15.2347C112.211 15.2347 112.092 15.1152 112.092 14.9691C112.092 14.823 112.211 14.7035 112.357 14.7035ZM103.578 14.7068C103.724 14.7068 103.844 14.8263 103.844 14.9724C103.844 15.1185 103.724 15.238 103.578 15.238C103.432 15.238 103.313 15.1185 103.313 14.9724C103.313 14.8263 103.432 14.7068 103.578 14.7068ZM109.153 15.6365C109.03 15.8523 108.851 16.0316 108.632 16.1544C108.961 16.4234 109.279 16.699 109.588 16.9746C109.528 17.0775 109.545 17.197 109.565 17.3165L109.771 17.5224C110.06 17.3165 110.315 17.0609 110.521 16.772L110.315 16.5662C110.182 16.5496 110.083 16.5396 109.973 16.5894C109.698 16.2806 109.422 15.9619 109.153 15.6365ZM106.782 15.6365C106.513 15.9619 106.238 16.2806 105.962 16.5894C105.859 16.5296 105.74 16.5462 105.624 16.5662L105.414 16.772C105.62 17.0642 105.876 17.3199 106.168 17.5224L106.374 17.3165C106.391 17.1837 106.401 17.0841 106.351 16.9746C106.66 16.699 106.978 16.4234 107.304 16.1544C107.088 16.0316 106.905 15.8523 106.782 15.6365ZM107.599 16.2773C107.639 16.699 107.672 17.1206 107.695 17.5357C107.579 17.5622 107.503 17.6619 107.437 17.7581V18.047C107.802 18.1035 108.16 18.1001 108.499 18.047V17.7581C108.416 17.6519 108.353 17.5755 108.24 17.5324C108.263 17.1206 108.293 16.699 108.333 16.2806C108.077 16.3238 107.808 16.3371 107.599 16.2773ZM105.053 17.8876C105.155 17.9906 105.155 18.1599 105.053 18.2628C104.95 18.3658 104.78 18.3658 104.677 18.2628C104.574 18.1599 104.574 17.9906 104.677 17.8876C104.794 17.788 104.95 17.788 105.053 17.8876ZM111.262 17.8876C111.364 17.9906 111.364 18.1599 111.262 18.2628C111.159 18.3658 110.989 18.3658 110.886 18.2628C110.783 18.1599 110.783 17.9906 110.886 17.8876C111.003 17.788 111.162 17.788 111.262 17.8876ZM112.477 18.306C112.148 18.7509 111.75 19.1494 111.305 19.4781L111.677 19.8533C111.816 19.7802 111.942 19.6806 112.055 19.5876C112.125 19.8001 112.278 20.0292 112.477 20.2285C112.892 20.6435 113.393 20.8095 113.602 20.6037C113.808 20.3945 113.642 19.8931 113.227 19.4781C113.028 19.2788 112.799 19.1261 112.586 19.0564C112.693 18.9402 112.772 18.8173 112.852 18.6779L112.477 18.306ZM103.459 18.306L103.087 18.6779C103.163 18.814 103.256 18.9501 103.353 19.0564C103.14 19.1261 102.911 19.2788 102.709 19.4781C102.295 19.8931 102.128 20.3945 102.334 20.6037C102.541 20.8128 103.047 20.6435 103.462 20.2285C103.661 20.0292 103.814 19.8001 103.884 19.5876C104 19.6939 104.123 19.7736 104.262 19.8533L104.634 19.4814C104.186 19.1494 103.791 18.7542 103.459 18.306ZM107.968 19.0929C108.114 19.0929 108.233 19.2124 108.233 19.3585C108.233 19.5046 108.114 19.6242 107.968 19.6242C107.822 19.6242 107.702 19.5046 107.702 19.3585C107.702 19.2124 107.822 19.0929 107.968 19.0929ZM107.138 20.5206V21.0453C107.287 21.0917 107.45 21.115 107.593 21.1249C107.493 21.3242 107.437 21.5931 107.437 21.8753C107.437 22.463 107.676 22.9378 107.968 22.9378C108.26 22.9378 108.499 22.463 108.499 21.8753C108.499 21.5931 108.443 21.3242 108.343 21.1249C108.499 21.1183 108.642 21.0884 108.798 21.0453V20.5173C108.23 20.6003 107.666 20.597 107.138 20.5206Z"
          fill="#061556" fill-opacity="0.48"/>
    <circle cx="108" cy="15" r="1" fill="#061556"/>
    <circle cx="108.2" cy="8.2" r="0.2" fill="#061556"/>
    <circle cx="113.2" cy="10.2" r="0.2" fill="#061556"/>
    <circle cx="113.2" cy="20.2" r="0.2" fill="#061556"/>
    <circle cx="103.2" cy="20.2" r="0.2" fill="#061556"/>
    <circle cx="101.2" cy="15.2" r="0.2" fill="#061556"/>
    <circle cx="103.2" cy="10.2" r="0.2" fill="#061556"/>
    <path d="M122.248 19.096C121.491 19.096 120.813 18.9413 120.216 18.632C119.619 18.312 119.144 17.848 118.792 17.24C118.451 16.632 118.28 15.8907 118.28 15.016V10.856C118.28 10.6853 118.339 10.5413 118.456 10.424C118.573 10.3067 118.717 10.248 118.888 10.248C119.069 10.248 119.219 10.3067 119.336 10.424C119.453 10.5413 119.512 10.6853 119.512 10.856V15.016C119.512 15.6773 119.635 16.2213 119.88 16.648C120.136 17.0747 120.477 17.3947 120.904 17.608C121.341 17.8213 121.832 17.928 122.376 17.928C122.899 17.928 123.368 17.8267 123.784 17.624C124.211 17.4213 124.547 17.144 124.792 16.792C125.037 16.44 125.16 16.04 125.16 15.592H126.04C126.008 16.264 125.821 16.8667 125.48 17.4C125.149 17.9227 124.701 18.3387 124.136 18.648C123.571 18.9467 122.941 19.096 122.248 19.096ZM125.768 19C125.587 19 125.437 18.9467 125.32 18.84C125.213 18.7227 125.16 18.568 125.16 18.376V10.856C125.16 10.6747 125.213 10.5307 125.32 10.424C125.437 10.3067 125.587 10.248 125.768 10.248C125.949 10.248 126.099 10.3067 126.216 10.424C126.333 10.5307 126.392 10.6747 126.392 10.856V18.376C126.392 18.568 126.333 18.7227 126.216 18.84C126.099 18.9467 125.949 19 125.768 19ZM129.78 13.608C129.812 12.9467 129.983 12.3547 130.292 11.832C130.612 11.3093 131.023 10.8987 131.524 10.6C132.036 10.3013 132.601 10.152 133.22 10.152C133.711 10.152 134.089 10.2213 134.356 10.36C134.623 10.4987 134.724 10.7013 134.66 10.968C134.617 11.128 134.543 11.2347 134.436 11.288C134.34 11.3413 134.217 11.3627 134.068 11.352C133.929 11.3413 133.769 11.3307 133.588 11.32C132.991 11.2667 132.457 11.3307 131.988 11.512C131.529 11.6827 131.161 11.9493 130.884 12.312C130.617 12.6747 130.484 13.1067 130.484 13.608H129.78ZM129.876 19C129.684 19 129.535 18.9467 129.428 18.84C129.321 18.7333 129.268 18.584 129.268 18.392V10.856C129.268 10.664 129.321 10.5147 129.428 10.408C129.535 10.3013 129.684 10.248 129.876 10.248C130.068 10.248 130.217 10.3013 130.324 10.408C130.431 10.5147 130.484 10.664 130.484 10.856V18.392C130.484 18.584 130.431 18.7333 130.324 18.84C130.217 18.9467 130.068 19 129.876 19Z"
          fill="#061556" fill-opacity="0.48"/>
    <path d="M54.079 27.29C52.5323 27.29 51.0727 26.9903 49.7 26.391C48.3467 25.7723 47.148 24.9313 46.104 23.868C45.06 22.7853 44.2383 21.548 43.639 20.156C43.0397 18.7447 42.74 17.2463 42.74 15.661C42.74 14.095 43.03 12.616 43.61 11.224C44.19 9.81267 44.9923 8.57533 46.017 7.512C47.061 6.42933 48.2693 5.58833 49.642 4.989C51.0147 4.37033 52.4937 4.061 54.079 4.061C55.413 4.061 56.6793 4.27367 57.878 4.699C59.0767 5.12433 60.198 5.772 61.242 6.642C61.416 6.77733 61.503 6.97067 61.503 7.222C61.503 7.454 61.4257 7.66667 61.271 7.86C61.1163 8.034 60.9037 8.121 60.633 8.121C60.5557 8.121 60.4783 8.11133 60.401 8.092C60.3237 8.05333 60.2463 8.01467 60.169 7.976C60.0917 7.918 60.0047 7.85033 59.908 7.773C59.1347 7.077 58.255 6.57433 57.269 6.265C56.283 5.95567 55.2197 5.801 54.079 5.801C52.7837 5.801 51.556 6.07167 50.396 6.613C49.236 7.135 48.2113 7.86 47.322 8.788C46.4327 9.69667 45.7367 10.7407 45.234 11.92C44.7313 13.0993 44.48 14.3463 44.48 15.661C44.48 17.0143 44.7313 18.2903 45.234 19.489C45.7367 20.6877 46.423 21.7413 47.293 22.65C48.1823 23.5587 49.207 24.274 50.367 24.796C51.527 25.2987 52.7643 25.55 54.079 25.55C55.2197 25.55 56.283 25.376 57.269 25.028C58.2743 24.68 59.212 24.1483 60.082 23.433C60.2367 23.2977 60.4203 23.2493 60.633 23.288C60.8457 23.3267 61.0293 23.4233 61.184 23.578C61.3387 23.7327 61.416 23.9357 61.416 24.187C61.416 24.303 61.4063 24.4093 61.387 24.506C61.3677 24.6027 61.3097 24.6993 61.213 24.796C60.2657 25.7433 59.1637 26.4007 57.907 26.768C56.6697 27.116 55.3937 27.29 54.079 27.29Z"
          fill="#061556" fill-opacity="0.42"/>
    <path d="M51.952 14.608C51.984 13.9467 52.1547 13.3547 52.464 12.832C52.784 12.3093 53.1947 11.8987 53.696 11.6C54.208 11.3013 54.7733 11.152 55.392 11.152C55.8827 11.152 56.2613 11.2213 56.528 11.36C56.7947 11.4987 56.896 11.7013 56.832 11.968C56.7893 12.128 56.7147 12.2347 56.608 12.288C56.512 12.3413 56.3893 12.3627 56.24 12.352C56.1013 12.3413 55.9413 12.3307 55.76 12.32C55.1627 12.2667 54.6293 12.3307 54.16 12.512C53.7013 12.6827 53.3333 12.9493 53.056 13.312C52.7893 13.6747 52.656 14.1067 52.656 14.608H51.952ZM52.048 20C51.856 20 51.7067 19.9467 51.6 19.84C51.4933 19.7333 51.44 19.584 51.44 19.392V11.856C51.44 11.664 51.4933 11.5147 51.6 11.408C51.7067 11.3013 51.856 11.248 52.048 11.248C52.24 11.248 52.3893 11.3013 52.496 11.408C52.6027 11.5147 52.656 11.664 52.656 11.856V19.392C52.656 19.584 52.6027 19.7333 52.496 19.84C52.3893 19.9467 52.24 20 52.048 20ZM62.5761 20.096C61.8188 20.096 61.1415 19.9413 60.5441 19.632C59.9468 19.312 59.4721 18.848 59.1201 18.24C58.7788 17.632 58.6081 16.8907 58.6081 16.016V11.856C58.6081 11.6853 58.6668 11.5413 58.7841 11.424C58.9015 11.3067 59.0455 11.248 59.2161 11.248C59.3975 11.248 59.5468 11.3067 59.6641 11.424C59.7815 11.5413 59.8401 11.6853 59.8401 11.856V16.016C59.8401 16.6773 59.9628 17.2213 60.2081 17.648C60.4641 18.0747 60.8055 18.3947 61.2321 18.608C61.6695 18.8213 62.1601 18.928 62.7041 18.928C63.2268 18.928 63.6961 18.8267 64.1121 18.624C64.5388 18.4213 64.8748 18.144 65.1201 17.792C65.3655 17.44 65.4881 17.04 65.4881 16.592H66.3681C66.3361 17.264 66.1495 17.8667 65.8081 18.4C65.4775 18.9227 65.0295 19.3387 64.4641 19.648C63.8988 19.9467 63.2695 20.096 62.5761 20.096ZM66.0961 20C65.9148 20 65.7655 19.9467 65.6481 19.84C65.5415 19.7227 65.4881 19.568 65.4881 19.376V11.856C65.4881 11.6747 65.5415 11.5307 65.6481 11.424C65.7655 11.3067 65.9148 11.248 66.0961 11.248C66.2775 11.248 66.4268 11.3067 66.5441 11.424C66.6615 11.5307 66.7201 11.6747 66.7201 11.856V19.376C66.7201 19.568 66.6615 19.7227 66.5441 19.84C66.4268 19.9467 66.2775 20 66.0961 20ZM70.4763 20C70.2843 20 70.1296 19.9467 70.0123 19.84C69.9056 19.7227 69.8523 19.568 69.8523 19.376V11.872C69.8523 11.68 69.9056 11.5307 70.0123 11.424C70.1296 11.3067 70.2843 11.248 70.4763 11.248C70.6576 11.248 70.8016 11.3067 70.9083 11.424C71.0256 11.5307 71.0843 11.68 71.0843 11.872V19.376C71.0843 19.568 71.0256 19.7227 70.9083 19.84C70.8016 19.9467 70.6576 20 70.4763 20ZM70.4603 9.584C70.2256 9.584 70.0229 9.49867 69.8523 9.328C69.6816 9.15733 69.5963 8.94933 69.5963 8.704C69.5963 8.43733 69.6816 8.22933 69.8523 8.08C70.0336 7.92 70.2416 7.84 70.4763 7.84C70.7003 7.84 70.8976 7.92 71.0683 8.08C71.2496 8.22933 71.3403 8.43733 71.3403 8.704C71.3403 8.94933 71.2549 9.15733 71.0843 9.328C70.9136 9.49867 70.7056 9.584 70.4603 9.584ZM77.2773 20.08C76.6479 20.08 76.0239 19.9733 75.4053 19.76C74.7866 19.5467 74.2853 19.2267 73.9013 18.8C73.7839 18.672 73.7359 18.528 73.7573 18.368C73.7786 18.208 73.8586 18.0693 73.9973 17.952C74.1466 17.8453 74.3013 17.8027 74.4613 17.824C74.6213 17.8453 74.7546 17.9147 74.8613 18.032C75.1173 18.3307 75.4533 18.56 75.8693 18.72C76.2959 18.88 76.7653 18.96 77.2773 18.96C78.0666 18.96 78.6373 18.8267 78.9893 18.56C79.3413 18.2827 79.5226 17.952 79.5333 17.568C79.5333 17.184 79.3519 16.8693 78.9893 16.624C78.6266 16.368 78.0293 16.1707 77.1973 16.032C76.1199 15.8613 75.3306 15.5627 74.8293 15.136C74.3279 14.7093 74.0773 14.2027 74.0773 13.616C74.0773 13.072 74.2213 12.6187 74.5093 12.256C74.7973 11.8933 75.1813 11.6213 75.6613 11.44C76.1413 11.2587 76.6693 11.168 77.2453 11.168C77.9599 11.168 78.5733 11.2907 79.0853 11.536C79.6079 11.7813 80.0293 12.112 80.3493 12.528C80.4559 12.6667 80.4986 12.8107 80.4773 12.96C80.4559 13.1093 80.3706 13.232 80.2213 13.328C80.0933 13.4027 79.9439 13.4293 79.7733 13.408C79.6133 13.376 79.4746 13.296 79.3573 13.168C79.0906 12.8587 78.7813 12.6347 78.4293 12.496C78.0773 12.3467 77.6719 12.272 77.2133 12.272C76.6266 12.272 76.1573 12.3947 75.8053 12.64C75.4533 12.8747 75.2773 13.1733 75.2773 13.536C75.2773 13.7813 75.3413 13.9947 75.4693 14.176C75.6079 14.3573 75.8373 14.5173 76.1573 14.656C76.4879 14.7947 76.9466 14.912 77.5333 15.008C78.3333 15.136 78.9626 15.328 79.4213 15.584C79.8906 15.8293 80.2213 16.1227 80.4133 16.464C80.6159 16.7947 80.7173 17.1573 80.7173 17.552C80.7173 18.0533 80.5679 18.496 80.2693 18.88C79.9813 19.2533 79.5759 19.5467 79.0533 19.76C78.5413 19.9733 77.9493 20.08 77.2773 20.08ZM86.8143 20.08C85.9503 20.08 85.1823 19.8933 84.5103 19.52C83.8489 19.136 83.3262 18.608 82.9423 17.936C82.5689 17.264 82.3823 16.496 82.3823 15.632C82.3823 14.7573 82.5583 13.9893 82.9103 13.328C83.2729 12.656 83.7689 12.128 84.3983 11.744C85.0276 11.36 85.7529 11.168 86.5743 11.168C87.3849 11.168 88.0889 11.3547 88.6863 11.728C89.2943 12.0907 89.7636 12.5973 90.0943 13.248C90.4249 13.8987 90.5903 14.64 90.5903 15.472C90.5903 15.6427 90.5369 15.7813 90.4303 15.888C90.3236 15.984 90.1849 16.032 90.0143 16.032H83.2143V15.008H90.1423L89.4543 15.504C89.4649 14.8853 89.3529 14.3307 89.1183 13.84C88.8836 13.3493 88.5476 12.9653 88.1103 12.688C87.6836 12.4107 87.1716 12.272 86.5743 12.272C85.9663 12.272 85.4329 12.416 84.9743 12.704C84.5156 12.992 84.1583 13.392 83.9023 13.904C83.6569 14.4053 83.5343 14.9813 83.5343 15.632C83.5343 16.2827 83.6729 16.8587 83.9503 17.36C84.2383 17.8613 84.6276 18.256 85.1183 18.544C85.6089 18.832 86.1743 18.976 86.8143 18.976C87.1983 18.976 87.5823 18.912 87.9663 18.784C88.3609 18.6453 88.6756 18.4747 88.9103 18.272C89.0276 18.176 89.1609 18.128 89.3103 18.128C89.4596 18.1173 89.5876 18.1547 89.6943 18.24C89.8329 18.368 89.9023 18.5067 89.9023 18.656C89.9129 18.8053 89.8543 18.9333 89.7263 19.04C89.3743 19.3387 88.9263 19.5893 88.3823 19.792C87.8383 19.984 87.3156 20.08 86.8143 20.08Z"
          fill="#061556"/>
    <path d="M9.44 20.16C8.75733 20.16 8.12267 20.064 7.536 19.872C6.96 19.6693 6.45867 19.3867 6.032 19.024C5.60533 18.6613 5.28 18.24 5.056 17.76C4.97067 17.5893 4.96533 17.4347 5.04 17.296C5.12533 17.1467 5.264 17.0453 5.456 16.992C5.60533 16.9493 5.74933 16.9653 5.888 17.04C6.03733 17.1147 6.14933 17.2267 6.224 17.376C6.384 17.6853 6.61867 17.9627 6.928 18.208C7.23733 18.4533 7.60533 18.6453 8.032 18.784C8.45867 18.912 8.928 18.976 9.44 18.976C10.0053 18.976 10.5067 18.8853 10.944 18.704C11.3813 18.512 11.7227 18.24 11.968 17.888C12.224 17.5253 12.352 17.088 12.352 16.576C12.352 15.9253 12.112 15.3653 11.632 14.896C11.152 14.4267 10.4 14.128 9.376 14C8.128 13.8507 7.152 13.4667 6.448 12.848C5.744 12.2187 5.392 11.4507 5.392 10.544C5.392 9.89333 5.56267 9.328 5.904 8.848C6.256 8.368 6.736 8 7.344 7.744C7.952 7.47733 8.65067 7.344 9.44 7.344C10.0267 7.344 10.56 7.44 11.04 7.632C11.52 7.81333 11.936 8.05867 12.288 8.368C12.6507 8.66667 12.944 8.99733 13.168 9.36C13.2747 9.53067 13.3067 9.696 13.264 9.856C13.232 10.016 13.1413 10.1387 12.992 10.224C12.832 10.2987 12.6667 10.3093 12.496 10.256C12.336 10.2027 12.2133 10.1013 12.128 9.952C11.968 9.70667 11.7653 9.47733 11.52 9.264C11.2853 9.04 10.9973 8.864 10.656 8.736C10.3147 8.608 9.904 8.53867 9.424 8.528C8.58133 8.528 7.904 8.70933 7.392 9.072C6.88 9.424 6.624 9.94133 6.624 10.624C6.624 10.9867 6.72 11.3227 6.912 11.632C7.104 11.9307 7.41867 12.192 7.856 12.416C8.304 12.6293 8.90133 12.7893 9.648 12.896C10.9813 13.088 11.968 13.4987 12.608 14.128C13.2587 14.7467 13.584 15.5573 13.584 16.56C13.584 17.136 13.4773 17.648 13.264 18.096C13.0613 18.544 12.768 18.9227 12.384 19.232C12.0107 19.5307 11.568 19.76 11.056 19.92C10.5547 20.08 10.016 20.16 9.44 20.16ZM16.6578 16.432C16.4658 16.432 16.3111 16.3733 16.1938 16.256C16.0871 16.1387 16.0338 15.9893 16.0338 15.808V8.128C16.0338 7.936 16.0871 7.78667 16.1938 7.68C16.3111 7.56267 16.4658 7.504 16.6578 7.504C16.8391 7.504 16.9831 7.56267 17.0898 7.68C17.2071 7.78667 17.2658 7.936 17.2658 8.128V15.808C17.2658 15.9893 17.2071 16.1387 17.0898 16.256C16.9831 16.3733 16.8391 16.432 16.6578 16.432ZM23.5378 20C23.3564 20 23.2071 19.9413 23.0898 19.824C22.9724 19.7067 22.9138 19.5627 22.9138 19.392V15.232C22.9138 14.5707 22.7858 14.0267 22.5298 13.6C22.2844 13.1733 21.9431 12.8533 21.5058 12.64C21.0791 12.4267 20.5938 12.32 20.0498 12.32C19.5271 12.32 19.0524 12.4213 18.6258 12.624C18.2098 12.8267 17.8791 13.104 17.6338 13.456C17.3884 13.808 17.2658 14.208 17.2658 14.656H16.3858C16.4071 13.984 16.5884 13.3867 16.9298 12.864C17.2711 12.3307 17.7244 11.9147 18.2898 11.616C18.8551 11.3067 19.4844 11.152 20.1778 11.152C20.9351 11.152 21.6124 11.312 22.2098 11.632C22.8071 11.9413 23.2764 12.4 23.6178 13.008C23.9698 13.616 24.1458 14.3573 24.1458 15.232V19.392C24.1458 19.5627 24.0871 19.7067 23.9698 19.824C23.8524 19.9413 23.7084 20 23.5378 20ZM16.6578 20C16.4658 20 16.3111 19.9467 16.1938 19.84C16.0871 19.7227 16.0338 19.5733 16.0338 19.392V11.872C16.0338 11.68 16.0871 11.5307 16.1938 11.424C16.3111 11.3067 16.4658 11.248 16.6578 11.248C16.8391 11.248 16.9831 11.3067 17.0898 11.424C17.2071 11.5307 17.2658 11.68 17.2658 11.872V19.392C17.2658 19.5733 17.2071 19.7227 17.0898 19.84C16.9831 19.9467 16.8391 20 16.6578 20ZM27.7419 20C27.5499 20 27.3952 19.9467 27.2779 19.84C27.1712 19.7227 27.1179 19.568 27.1179 19.376V11.872C27.1179 11.68 27.1712 11.5307 27.2779 11.424C27.3952 11.3067 27.5499 11.248 27.7419 11.248C27.9232 11.248 28.0672 11.3067 28.1739 11.424C28.2912 11.5307 28.3499 11.68 28.3499 11.872V19.376C28.3499 19.568 28.2912 19.7227 28.1739 19.84C28.0672 19.9467 27.9232 20 27.7419 20ZM27.7259 9.584C27.4912 9.584 27.2885 9.49867 27.1179 9.328C26.9472 9.15733 26.8619 8.94933 26.8619 8.704C26.8619 8.43733 26.9472 8.22933 27.1179 8.08C27.2992 7.92 27.5072 7.84 27.7419 7.84C27.9659 7.84 28.1632 7.92 28.3339 8.08C28.5152 8.22933 28.6059 8.43733 28.6059 8.704C28.6059 8.94933 28.5205 9.15733 28.3499 9.328C28.1792 9.49867 27.9712 9.584 27.7259 9.584ZM32.1109 23.744C31.9189 23.744 31.7642 23.6853 31.6469 23.568C31.5402 23.4613 31.4869 23.312 31.4869 23.12V15.568C31.4975 14.736 31.6949 13.9893 32.0789 13.328C32.4735 12.656 33.0015 12.128 33.6629 11.744C34.3349 11.36 35.0869 11.168 35.9189 11.168C36.7722 11.168 37.5349 11.3653 38.2069 11.76C38.8789 12.144 39.4069 12.672 39.7909 13.344C40.1855 14.016 40.3829 14.7787 40.3829 15.632C40.3829 16.4747 40.1909 17.232 39.8069 17.904C39.4335 18.576 38.9215 19.1093 38.2709 19.504C37.6202 19.888 36.8842 20.08 36.0629 20.08C35.3482 20.08 34.6975 19.9307 34.1109 19.632C33.5349 19.3227 33.0709 18.9173 32.7189 18.416V23.12C32.7189 23.312 32.6602 23.4613 32.5429 23.568C32.4362 23.6853 32.2922 23.744 32.1109 23.744ZM35.9189 18.96C36.5375 18.96 37.0922 18.816 37.5829 18.528C38.0735 18.24 38.4575 17.8453 38.7349 17.344C39.0229 16.832 39.1669 16.2613 39.1669 15.632C39.1669 14.992 39.0229 14.4213 38.7349 13.92C38.4575 13.4187 38.0735 13.024 37.5829 12.736C37.0922 12.4373 36.5375 12.288 35.9189 12.288C35.3109 12.288 34.7615 12.4373 34.2709 12.736C33.7802 13.024 33.3962 13.4187 33.1189 13.92C32.8415 14.4213 32.7029 14.992 32.7029 15.632C32.7029 16.2613 32.8415 16.832 33.1189 17.344C33.3962 17.8453 33.7802 18.24 34.2709 18.528C34.7615 18.816 35.3109 18.96 35.9189 18.96Z"
          fill="#061556"/>
</svg>
